<svg id="undraw_done_re_oak4" xmlns="http://www.w3.org/2000/svg" width="302.073" height="259.211" viewBox="0 0 302.073 259.211">
  <path id="Path_438" data-name="Path 438" d="M309.285,658.525A10.744,10.744,0,0,0,319.66,656.7c3.634-3.05,4.773-8.073,5.7-12.726l2.742-13.761-5.74,3.952c-4.128,2.842-8.349,5.776-11.207,9.893s-4.1,9.737-1.809,14.192" transform="translate(-286.602 -420.65)" fill="#e6e6e6"/>
  <path id="Path_439" data-name="Path 439" d="M311.292,690.86c-.723-5.264-1.466-10.6-.958-15.915a25.034,25.034,0,0,1,4.826-13.124,21.83,21.83,0,0,1,5.6-5.076c.56-.353,1.076.534.518.886a20.755,20.755,0,0,0-8.21,9.905,33.269,33.269,0,0,0-1.767,14.331c.186,2.92.582,5.822.979,8.719a.532.532,0,0,1-.359.631.516.516,0,0,1-.631-.358Z" transform="translate(-287.723 -435.366)" fill="#f2f2f2"/>
  <path id="Path_442" data-name="Path 442" d="M324.424,703.967a7.909,7.909,0,0,0,6.891,3.558c3.489-.166,6.4-2.6,9.014-4.912l7.743-6.837-5.124-.245c-3.685-.177-7.466-.342-10.976.8s-6.747,3.872-7.389,7.5" transform="translate(-295.655 -456.918)" fill="#e6e6e6"/>
  <path id="Path_443" data-name="Path 443" d="M308.016,720.643c3.478-6.154,7.513-12.994,14.722-15.181a16.426,16.426,0,0,1,6.192-.639c.657.057.493,1.07-.163,1.014a15.262,15.262,0,0,0-9.881,2.614,25.684,25.684,0,0,0-6.792,7.329c-1.125,1.713-2.132,3.5-3.14,5.281C308.632,721.631,307.69,721.219,308.016,720.643Z" transform="translate(-286.489 -462.123)" fill="#f2f2f2"/>
  <path id="Path_141" data-name="Path 141" d="M692.151,340.428H500.386a2.232,2.232,0,0,1-2.229-2.229V160.113a2.232,2.232,0,0,1,2.229-2.229H692.151a2.232,2.232,0,0,1,2.229,2.229V338.2a2.231,2.231,0,0,1-2.229,2.229Z" transform="translate(-392.306 -157.884)" fill="#fff"/>
  <path id="Path_141-2" data-name="Path 141" d="M692.151,340.428H500.386a2.232,2.232,0,0,1-2.229-2.229V160.113a2.232,2.232,0,0,1,2.229-2.229H692.151a2.232,2.232,0,0,1,2.229,2.229V338.2a2.231,2.231,0,0,1-2.229,2.229ZM500.386,158.774a1.339,1.339,0,0,0-1.336,1.336V338.2a1.339,1.339,0,0,0,1.336,1.336H692.151a1.339,1.339,0,0,0,1.336-1.336V160.113a1.339,1.339,0,0,0-1.336-1.336Z" transform="translate(-392.306 -157.884)" fill="#cacaca"/>
  <path id="Path_142" data-name="Path 142" d="M705.513,262.185a1.513,1.513,0,0,0,0,3.026h83.031a1.513,1.513,0,1,0,0-3.026Z" transform="translate(-506.821 -215.909)" fill="#e4e4e4"/>
  <path id="Path_143" data-name="Path 143" d="M705.513,282.65a1.513,1.513,0,0,0,0,3.026H747.9a1.513,1.513,0,0,0,0-3.026Z" transform="translate(-506.821 -227.294)" fill="#e4e4e4"/>
  <path id="Path_142-2" data-name="Path 142" d="M541.944,392.7a1.513,1.513,0,1,0,0,3.026H697.628a1.513,1.513,0,0,0,0-3.026Z" transform="translate(-415.824 -288.52)" fill="#e4e4e4"/>
  <path id="Path_143-2" data-name="Path 143" d="M541.944,413.17a1.513,1.513,0,0,0,0,3.026H656.986a1.513,1.513,0,0,0,0-3.026Z" transform="translate(-415.824 -299.905)" fill="#e4e4e4"/>
  <path id="Path_142-3" data-name="Path 142" d="M541.944,433.172a1.513,1.513,0,0,0,0,3.026H697.628a1.513,1.513,0,0,0,0-3.026Z" transform="translate(-415.824 -311.033)" fill="#e4e4e4"/>
  <path id="Path_143-3" data-name="Path 143" d="M541.944,453.637a1.513,1.513,0,0,0,0,3.026H656.986a1.513,1.513,0,1,0,0-3.026Z" transform="translate(-415.824 -322.418)" fill="#e4e4e4"/>
  <path id="Path_142-4" data-name="Path 142" d="M541.944,474.172a1.513,1.513,0,0,0,0,3.026H697.628a1.513,1.513,0,0,0,0-3.026Z" transform="translate(-415.824 -333.842)" fill="#e4e4e4"/>
  <path id="Path_143-4" data-name="Path 143" d="M541.944,494.637a1.513,1.513,0,0,0,0,3.026H656.986a1.513,1.513,0,1,0,0-3.026Z" transform="translate(-415.824 -345.227)" fill="#e4e4e4"/>
  <path id="Path_30" data-name="Path 30" d="M572.159,270.309a21.74,21.74,0,1,1,21.74-21.74A21.74,21.74,0,0,1,572.159,270.309Z" transform="translate(-421.38 -196.239)" fill="#2eabf1"/>
  <path id="Path_31" data-name="Path 31" d="M424.3,491.081a5.434,5.434,0,0,0-6.634-5.041l-7.186-10.127-7.219,2.866,10.349,14.159a5.463,5.463,0,0,0,10.691-1.856Z" transform="translate(-339.511 -334.81)" fill="#a0616a"/>
  <path id="Path_32" data-name="Path 32" d="M391.848,430.375,370.1,402.167l8.147-25.605c.6-6.437,4.625-8.235,4.8-8.309l.261-.112,7.09,18.906-5.205,13.881,12.776,21.488Z" transform="translate(-321.067 -274.854)" fill="#3f3d56"/>
  <path id="Path_33" data-name="Path 33" d="M571.685,312.361a5.434,5.434,0,0,0-4.513,7l-9.541,7.947,3.416,6.976,13.316-11.413a5.463,5.463,0,0,0-2.677-10.515Z" transform="translate(-425.393 -243.796)" fill="#a0616a"/>
  <path id="Path_34" data-name="Path 34" d="M513.089,337.14,486.647,361l-26.158-6.143c-6.464-.1-8.568-3.975-8.655-4.14l-.132-.252,18.3-8.53,14.242,4.117,20.436-14.4Z" transform="translate(-366.462 -254.555)" fill="#3f3d56"/>
  <path id="Path_35" data-name="Path 35" d="M227.246,534.076h7.1l3.38-27.4H227.245Z" transform="translate(-126.421 -281.873)" fill="#a0616a"/>
  <path id="Path_36" data-name="Path 36" d="M0,0H22.329V8.627H6.264A6.264,6.264,0,0,1,0,2.363V0Z" transform="translate(121.63 258.8) rotate(179.997)" fill="#2f2e41"/>
  <path id="Path_37" data-name="Path 37" d="M163.246,534.076h7.1l3.38-27.4H163.245Z" transform="translate(-90.817 -281.873)" fill="#a0616a"/>
  <path id="Path_38" data-name="Path 38" d="M0,0H22.329V8.627H6.264A6.264,6.264,0,0,1,0,2.363Z" transform="translate(93.234 258.8) rotate(179.997)" fill="#2f2e41"/>
  <path id="Path_39" data-name="Path 39" d="M157.552,342.991l.579,40.565.58,53.314,12.749-1.159,6.375-73.6,8.113,73.6H199.11l1.326-74.176L195.8,345.309Z" transform="translate(-87.65 -190.813)" fill="#2f2e41"/>
  <path id="Path_40" data-name="Path 40" d="M427.875,412.221c-13.872,0-26.641-6.277-26.813-6.364l-.143-.072-1.164-27.937c-.338-.987-6.985-20.467-8.11-26.659-1.141-6.273,15.391-11.779,17.4-12.422l.456-5.046,18.525-2,2.348,6.457,6.646,2.492a3.287,3.287,0,0,1,2.037,3.862l-3.694,15.021,9.021,49.7-1.942.084A35.27,35.27,0,0,1,427.875,412.221Z" transform="translate(-333.019 -254.595)" fill="#3f3d56"/>
  <circle id="Ellipse_16" data-name="Ellipse 16" cx="13.338" cy="13.338" r="13.338" transform="translate(68.365 55.289) rotate(-28.663)" fill="#a0616a"/>
  <path id="Path_41" data-name="Path 41" d="M421.955,285.4a4.4,4.4,0,0,0,7.594-2.445,4.469,4.469,0,0,0-.006-.863c-.171-1.639-1.118-3.126-.891-4.856a2.546,2.546,0,0,1,.466-1.192c2.026-2.712,6.781,1.213,8.692-1.242,1.172-1.506-.206-3.876.694-5.559,1.187-2.221,4.7-1.125,6.909-2.342,2.454-1.353,2.307-5.118.692-7.408a11.652,11.652,0,0,0-8.834-4.5,23.7,23.7,0,0,0-9.982,1.948c-3.618,1.41-7.205,3.358-9.431,6.539-2.707,3.868-2.968,9.069-1.614,13.593C417.068,279.826,419.879,283.187,421.955,285.4Z" transform="translate(-346.292 -211.891)" fill="#2f2e41"/>
  <path id="Path_42" data-name="Path 42" d="M429.066,740.85H260.024a.444.444,0,0,1,0-.887H429.066a.444.444,0,0,1,0,.887Z" transform="translate(-259.581 -481.707)" fill="#cacaca"/>
  <path id="Path_43" data-name="Path 43" d="M585.654,274.051a1.547,1.547,0,0,1-1.057-.415l-7.169-6.658a1.553,1.553,0,1,1,2.114-2.276l6.072,5.64,12.013-12.013a1.553,1.553,0,0,1,2.2,2.2L586.753,273.6A1.55,1.55,0,0,1,585.654,274.051Z" transform="translate(-436.131 -213.511)" fill="#fff"/>
</svg>
